<svg xmlns="http://www.w3.org/2000/svg" version="1.1" width="45" height="45"><g style="fill:none; stroke:#000000; stroke-width:1.5; stroke-linecap:round; stroke-linejoin:round; stroke-miterlimit:4; stroke-dasharray:none; stroke-opacity:1"><g style="fill:#ffffff; stroke:#000000; stroke-linecap:butt;"><path d="M 9,36 C 12.39,35.03 19.11,36.43 22.5,34 C 25.89,36.43 32.61,35.03 36,36 C 36,36 37.65,36.54 39,38 C 38.32,38.97 38.15,41.95 38.5,43.5 L 6.5,43.5 C 6.85,41.95 6.68,38.97 6,38 C 7.35,36.54 9,36 9,36 z" /><path d="M 15,32 C 17.5,34.5 27.5,34.5 30,32 C 30.5,30.5 30,25 30,25 C 30,10 22.5,10 22.5,10 C 22.5,10 15,10 15,25 C 15,25 14.5,30.5 15,32 z" /><path d="M 25 8 A 2.5 2.5 0 1 1 20,8 A 2.5 2.5 0 1 1 25 8 z" /></g><path d="M 17.5,26 L 27.5,26 M 15,30 L 30,30 M 22.5,15.5 L 22.5,20.5 M 20,18 L 25,18" style="fill:none; stroke:#000000; stroke-linejoin:miter;" /></g></svg>