<svg xmlns="http://www.w3.org/2000/svg" version="1.1" width="45" height="45"><path d="M 22,10 C 32.5,11 38.5,18 38,39 L 15,39 C 15,30 25,32.5 23,18" style="fill:#ffffff; stroke:#000000;" /><path d="M 24,18 C 24.38,20.91 18.45,25.37 16,27 C 13,29 13.18,31.34 11,31 C 9.958,30.06 12.41,27.96 11,28 C 10,28 11.19,29.23 10,30 C 9,30 5.997,31 6,26 C 6,24 0.2,14 11,14 C 11,14 18,7.9 20,8 C 22,8 24.5,8 24,18 z" style="fill:#ffffff; stroke:#000000;" /><path d="M 9.5 25.5 A 0.5 0.5 0 1 1 8.5,25.5 A 0.5 0.5 0 1 1 9.5 25.5 z" style="fill:#000000; stroke:#000000;" /><path d="M 15 15.5 A 0.5 1.5 0 1 1 14,15.5 A 0.5 1.5 0 1 1 15 15.5 z" style="fill:#000000; stroke:#000000;" transform="matrix(0.866,0.5,-0.5,0.866,9.693,-5.173)" /></svg>