<svg xmlns="http://www.w3.org/2000/svg" version="1.1" width="45" height="45"><g style="opacity:1; fill:#ffffff; fill-opacity:1; fill-rule:evenodd; stroke:#000000; stroke-width:1.5; stroke-linecap:round; stroke-linejoin:round; stroke-miterlimit:4; stroke-dasharray:none; stroke-opacity:1;"><path d="M 8 12 C 10 12 12 12.5 12 14.3 C 12 15.3 12.5 16 13 16 C 13 16 13 19 12 21 C 12.5 22 13 23.5 13 25 C 13 26 13.5 27 15 27 C 14.5 27.5 14 28 14 29 C 13.5 30 14 31.5 16 32.5 C 16 33.5 17 35.5 17.5 36 C 16.5 37 12 37.5 12 39.5 L 34 39.5 C 34 37.5 29.5 37 28.5 36 C 29 35.5 30 33.5 30 32.5 C 32 31.5 32.5 30 32 29 C 32 28 31.5 27.5 31 27 C 32.5 27 33 26 33 25 C 33 23.5 33.5 22 34 21 C 33 19 33 16 33 16 C 33.5 16 34 15.3 34 14.3 C 34 12.5 36 12 38 12" style="stroke-linecap:butt;" /><path d="M 9 26 C 17.5 24.5 30 24.5 36 26 L 38 14 L 31 25 L 31 11 L 25.5 24.5 L 22.5 9.5 L 19.5 24.5 L 14 10.5 L 14 25 L 7 14 L 9 26 z " style="stroke-linecap:butt;" /><path d="M 9 26 C 9 28 10.5 28 11.5 30 C 12.5 31.5 12.5 31 12 33.5 C 10.5 34.5 10.5 36 10.5 36 C 9 37.5 11 38.5 11 38.5 L 17.5 39.5 L 9.995 36 C 9.5 34 9 33 8.5 32.5 C 8 32 8.5 30.5 8.5 30 C 8.5 29 8 28.5 8 28.5 C 8.5 27 9 26.5 9 26 z " style="stroke-linecap:butt;" /><path d="M 36 26 C 36 28 34.5 28 33.5 30 C 32.5 31.5 32.5 31 33 33.5 C 34.5 34.5 34.5 36 34.5 36 C 36 37.5 34 38.5 34 38.5 L 27.5 39.5 L 35.01 36 C 35.5 34 36 33 36.5 32.5 C 37 32 36.5 30.5 36.5 30 C 36.5 29 37 28.5 37 28.5 C 36.5 27 36 26.5 36 26 z " style="stroke-linecap:butt;" /><path d="M 14 29.5 C 19 30 25 30 31 29.5 L 32 26.5 L 13 26.5 L 14 29.5 z " style="stroke-linecap:butt;" /></g></svg>